<?xml version="1.0" encoding="utf-8"?>
<!-- Generator: Adobe Illustrator 21.0.0, SVG Export Plug-In . SVG Version: 6.00 Build 0)  -->
<svg version="1.1" id="Layer_1" xmlns="http://www.w3.org/2000/svg" xmlns:xlink="http://www.w3.org/1999/xlink" x="0px" y="0px"
	 viewBox="0 0 129 26" style="enable-background:new 0 0 129 26;" xml:space="preserve">
<style type="text/css">
	.st0{fill:#FFC110;}
	.st1{fill:#020202;}
	.st2{fill:#BDBDBD;}
</style>
<g>
	<path class="st0" d="M0.7,0.7c0.1,0,0.2,0,0.3,0c2.8,0,5.7,0,8.5,0c1.1,0,2.1,0.1,3.1,0.6c1.9,0.8,3.1,2.3,3.5,4.4
		c0.2,1.3,0.2,2.6-0.2,3.8c-0.6,1.8-1.9,3-3.7,3.6c-0.7,0.2-1.4,0.4-2.2,0.4c-2,0.1-4,0-5.9,0c-0.3,0-0.5,0-0.8,0
		c-0.1,0-0.2,0-0.2,0.2c0,0.1,0,0.1,0,0.2c0,2.1,0,4.2,0,6.3c0,0.3,0,0.3-0.3,0.3c-0.7,0-1.5,0-2.2,0C0.7,13.8,0.7,7.2,0.7,0.7z
		 M3.2,7c0,1.3,0,2.5,0,3.8c0,0.1,0,0.1,0,0.2c0,0.1,0,0.1,0.1,0.1h0.1c2.1,0,4.1,0,6.2,0c0.5,0,1.1-0.1,1.6-0.2
		c1.3-0.4,2.2-1.2,2.5-2.5C14,7.6,14,6.9,13.9,6.1c-0.2-1.2-0.9-2.2-2.1-2.7C11.1,3.1,10.3,3,9.5,3c-2,0-4,0-6,0C3.4,3,3.4,3,3.3,3
		C3.2,3,3.2,3,3.2,3.1s0,0.1,0,0.2C3.2,4.6,3.2,5.8,3.2,7z"/>
	<path class="st1" d="M52.4,0.6"/>
	<path class="st1" d="M52.7,0.6C53.9,0.8,55,1,56,1.5c1.1,0.6,1.9,1.3,2.5,2.4c0.4,0.7,0.6,1.4,0.6,2.2c-0.1,0.1-0.2,0-0.2,0
		c-0.6,0-1.2,0-1.8,0c-0.1,0-0.2,0-0.2-0.2c-0.1-0.7-0.4-1.3-0.9-1.8c-0.4-0.4-0.9-0.7-1.5-0.9c-0.7-0.3-1.4-0.4-2.2-0.5
		s-1.6-0.1-2.4,0.1c-0.7,0.1-1.4,0.3-2.1,0.7C47.5,3.6,47.2,3.8,47,4c-0.4,0.5-0.6,1-0.7,1.7c0,0.3,0,0.5,0,0.8
		c0.1,0.4,0.3,0.7,0.6,0.9c0.4,0.4,0.9,0.7,1.5,0.9c0.9,0.3,1.7,0.6,2.6,0.8c1.4,0.3,2.8,0.7,4.2,1.1c0.9,0.3,1.7,0.7,2.5,1.2
		c0.8,0.6,1.4,1.3,1.7,2.3c0.2,0.6,0.2,1.3,0.1,1.9c-0.1,1.1-0.5,2.1-1.3,2.9c-0.7,0.7-1.5,1.1-2.3,1.4s-1.7,0.5-2.6,0.5
		c-1,0.1-2,0.1-3,0c-1.3-0.1-2.6-0.4-3.8-1.1c-1.6-0.9-2.5-2.2-2.8-4c-0.1-0.2-0.1-0.5-0.1-0.8c0-0.1,0-0.1,0.1-0.1c0.7,0,1.3,0,2,0
		c0.1,0,0.1,0,0.1,0.1s0,0.3,0.1,0.4c0.2,1.1,0.8,1.9,1.8,2.5c0.7,0.4,1.5,0.7,2.4,0.8c0.6,0.1,1.3,0.1,1.9,0.1c1,0,2-0.1,3-0.4
		c0.6-0.2,1.1-0.4,1.5-0.9c0.5-0.4,0.7-1,0.8-1.6c0.1-0.4,0.1-0.7,0-1.1c-0.1-0.6-0.5-1-0.9-1.3c-0.8-0.5-1.6-0.9-2.5-1.1
		c-1.2-0.4-2.5-0.6-3.7-0.9c-1.1-0.3-2.2-0.6-3.3-1.2c-0.6-0.3-1.2-0.7-1.7-1.2c-0.6-0.6-0.9-1.3-1-2.1c-0.1-1.4,0.2-2.7,1.1-3.9
		C46,1.8,46.9,1.3,47.9,1c0.7-0.2,1.5-0.4,2.2-0.4c0.1,0,0.2,0,0.4,0c0.1,0,0.2,0,0.3,0c0.4,0,0.9,0,1.3,0"/>
	<path class="st1" d="M62.5,26c0-6.7,0-13.4,0-20.1c0-0.3,0-0.3,0.3-0.3c0.6,0,1.1,0,1.7,0c0.2,0,0.2,0,0.2,0.2c0,0.6,0,1.2,0,1.8
		c0,0.1,0,0.2,0,0.3c0.1,0,0.1,0,0.1-0.1c1-1.3,2.3-2,3.9-2.3c1.3-0.2,2.6-0.1,3.8,0.3c1.3,0.5,2.4,1.4,3.2,2.6
		c0.8,1.1,1.2,2.3,1.3,3.6c0.1,1.2,0,2.4-0.3,3.5c-0.6,1.8-1.6,3.2-3.3,4.2c-0.8,0.4-1.6,0.7-2.5,0.8c-0.9,0.1-1.7,0.1-2.6-0.1
		c-1.4-0.3-2.5-1-3.3-2.1c-0.1-0.1-0.1-0.2-0.2-0.3c0,2.7,0,5.4,0,8.1C64,26,63.3,26,62.5,26z M74.8,12.8c0-0.3,0-0.7-0.1-1.2
		c-0.2-1.3-0.8-2.4-1.9-3.3c-1.5-1.2-3.2-1.3-4.9-0.7C66.6,8,65.7,9,65.2,10.2c-0.4,1-0.6,2-0.5,3c0,0.9,0.3,1.9,0.7,2.7
		c0.6,1,1.3,1.7,2.4,2.1c0.7,0.3,1.4,0.3,2.1,0.3c1.9,0,3.3-0.9,4.3-2.5C74.6,15,74.8,14,74.8,12.8z"/>
	<path class="st1" d="M126.8,13.7c-0.1,0-0.2,0-0.3,0c-3.9,0-7.7,0-11.6,0c-0.1,0-0.2,0-0.3,0c0,0.3,0.1,0.6,0.2,0.9
		c0.5,1.7,1.6,2.9,3.3,3.5c1.1,0.4,2.2,0.4,3.4,0c1.1-0.3,1.9-1,2.5-2c0.1-0.2,0.2-0.2,0.4-0.2c0.6,0,1.3,0,1.9,0c0.1,0,0.2,0,0.2,0
		c0,0.2-0.1,0.3-0.2,0.5c-0.7,1.4-1.7,2.5-3.1,3.3c-0.7,0.3-1.4,0.5-2.1,0.6s-1.5,0.1-2.3,0c-2.1-0.2-3.7-1.2-4.9-2.8
		c-0.8-1-1.2-2.2-1.4-3.5c-0.2-1.3-0.1-2.6,0.3-3.9c0.9-2.5,2.6-4.1,5.3-4.7c1.5-0.3,3-0.2,4.4,0.3c2,0.8,3.3,2.3,4,4.3
		c0.2,0.5,0.3,1,0.3,1.6c0,0.1,0,0.3,0,0.4C126.8,12.7,126.8,13.2,126.8,13.7z M124.5,11.7c-0.4-2.5-2.3-4.5-5.2-4.4
		c-3,0.1-4.5,2.4-4.7,4.4C117.9,11.7,121.2,11.7,124.5,11.7z"/>
	<path class="st2" d="M127.1,12c0-0.1-0.1-0.3,0-0.4l0,0C127.1,11.7,127.1,11.8,127.1,12z"/>
	<path class="st2" d="M50.5,0.6c-0.1,0-0.2,0-0.4,0l0,0C50.2,0.6,50.4,0.6,50.5,0.6L50.5,0.6z"/>
	<path class="st2" d="M52.7,0.6c-0.1,0-0.2,0-0.3,0l0,0C52.5,0.6,52.6,0.6,52.7,0.6L52.7,0.6z"/>
	<path class="st1" d="M91.3,18c-0.3,0.3-0.5,0.5-0.7,0.8c-0.9,0.9-1.9,1.4-3.1,1.6s-2.4,0.2-3.6-0.2c-1.7-0.5-3-1.6-3.9-3.1
		c-0.6-1-0.9-2.2-1-3.4c-0.1-1.3,0-2.5,0.4-3.7c0.7-1.9,1.9-3.3,3.8-4.1c1.2-0.5,2.4-0.6,3.7-0.5c1,0.1,1.9,0.4,2.7,0.9
		c0.6,0.4,1,0.8,1.5,1.4c0.1,0.1,0.1,0.1,0.2,0.3c0-0.1,0-0.2,0-0.3c0-0.6,0-1.2,0-1.8c0-0.2,0-0.2,0.2-0.2c0.6,0,1.2,0,1.8,0
		c0.1,0,0.2,0,0.2,0.2c0,0.1,0,0.1,0,0.2c0,4.7,0,9.3,0,14v0.1c0,0.3,0,0.3-0.3,0.3c-0.6,0-1.1,0-1.7,0c-0.3,0-0.3,0-0.3-0.3
		c0-0.6,0-1.1,0-1.7C91.3,18.2,91.3,18.1,91.3,18z M91.4,12.8c0-0.7-0.1-1.3-0.3-2.1c-0.5-1.3-1.3-2.4-2.6-3
		c-1.1-0.4-2.2-0.5-3.3-0.3c-1.7,0.4-2.8,1.4-3.5,2.9C81,12,81,13.6,81.6,15.2c0.4,1,1,1.8,1.9,2.4c1.2,0.8,2.5,1,3.9,0.7
		c1.4-0.2,2.4-1,3.2-2.2C91.2,15.2,91.4,14,91.4,12.8z"/>
	<path class="st0" d="M34.6,20.5c-1.2,0-2.4-0.2-3.4-0.7c-1.8-0.9-3-2.3-3.6-4.3c-0.4-1.2-0.4-2.4-0.3-3.6c0.1-0.9,0.3-1.7,0.6-2.5
		c1-2.2,2.8-3.6,5.2-4.1c1.5-0.3,3-0.2,4.4,0.4c2,0.8,3.3,2.2,4,4.2c0.4,1.2,0.5,2.5,0.4,3.8c-0.1,1-0.3,1.9-0.7,2.8
		c-1,2-2.6,3.3-4.9,3.8C35.7,20.5,35.1,20.5,34.6,20.5z M29.6,12.9c0,1,0.2,2,0.6,2.7c0.6,1.2,1.5,2.1,2.9,2.5c1,0.3,2,0.3,3,0
		c1.3-0.3,2.1-1.2,2.8-2.3c0.4-0.7,0.6-1.5,0.7-2.3c0.1-1.1,0-2.3-0.5-3.3c-0.6-1.2-1.5-2.1-2.8-2.6c-0.8-0.3-1.7-0.3-2.5-0.2
		C32.1,7.7,31,8.6,30.3,10C29.8,10.9,29.6,11.9,29.6,12.9z"/>
	<path class="st1" d="M110.5,15.6c0,0.1,0,0.1,0,0.2c-0.9,2.4-2.6,3.9-5.1,4.5c-1.3,0.3-2.7,0.3-4-0.1c-1.7-0.5-3-1.6-3.9-3.1
		c-0.6-1-0.9-2-1-3.2c-0.1-1.1,0-2.3,0.3-3.4c0.6-2,1.8-3.5,3.6-4.4c0.8-0.4,1.6-0.6,2.5-0.7c1.1-0.1,2.1,0,3.1,0.3
		c2.3,0.7,3.8,2.1,4.5,4.4v0.1l0,0c-0.1,0-0.1,0-0.2,0c-0.6,0-1.3,0-1.9,0c-0.2,0-0.2-0.1-0.3-0.2c-0.5-1.2-1.4-2-2.7-2.4
		c-0.5-0.2-1.1-0.2-1.7-0.2c-0.8,0-1.5,0.2-2.2,0.5c-1.2,0.6-2,1.5-2.4,2.7c-0.6,1.7-0.6,3.4,0.2,5.1c0.8,1.6,2.1,2.5,3.9,2.7
		c0.7,0.1,1.3,0.1,2-0.1c1.3-0.4,2.2-1.2,2.8-2.4c0.1-0.3,0.3-0.4,0.5-0.3c0.6,0,1.1,0,1.7,0C110.3,15.6,110.4,15.6,110.5,15.6z"/>
	<path class="st0" d="M20.9,8.4c0.2-0.2,0.3-0.5,0.5-0.7c0.5-0.8,1.2-1.3,2-1.8c0.9-0.5,1.9-0.7,2.9-0.7c0.2,0,0.2,0,0.2,0.2
		c0,0.7,0,1.4,0,2c0,0.2,0,0.2-0.2,0.2c-0.5,0-1,0-1.6,0.2c-1.1,0.3-1.9,1-2.6,1.9c-0.7,1-1.1,2.1-1.2,3.4c0,0.4,0,0.7,0,1.1
		c0,1.9,0,3.8,0,5.7c0,0.1,0,0.1,0,0.2c0,0.2,0,0.2-0.2,0.2c-0.7,0-1.3,0-2,0c-0.2,0-0.2,0-0.2-0.2c0-1.2,0-2.5,0-3.7
		c0-3.5,0-7.1,0-10.6c0-0.3-0.1-0.3,0.3-0.3c0.6,0,1.2,0,1.8,0c0.3,0,0.3,0,0.3,0.3C20.9,6.6,20.9,7.5,20.9,8.4z"/>
</g>
</svg>
